<mxfile host="app.diagrams.net" modified="2024-05-29T09:34:54.200Z" agent="Mozilla/5.0 (Windows NT 10.0; Win64; x64) AppleWebKit/537.36 (KHTML, like Gecko) Chrome/124.0.0.0 Safari/537.36" etag="BIcOxY1Zv4rwKxoTTVFl" version="24.4.4" type="github">
  <diagram id="sQ8EXhfYu_Z4RW1TYD9f" name="Page-1">
    <mxGraphModel dx="3217" dy="1243" grid="1" gridSize="10" guides="1" tooltips="1" connect="0" arrows="1" fold="1" page="1" pageScale="1" pageWidth="827" pageHeight="1169" math="0" shadow="0">
      <root>
        <mxCell id="0" />
        <mxCell id="1" parent="0" />
        <mxCell id="wOnGFkAYj0Utu0_wV-MN-16" value="구현" style="swimlane;fillColor=#dae8fc;strokeColor=#6c8ebf;" parent="1" vertex="1">
          <mxGeometry x="270" y="50" width="859" height="950" as="geometry" />
        </mxCell>
        <mxCell id="wOnGFkAYj0Utu0_wV-MN-17" value="분석 | 논의" style="swimlane;strokeColor=#82b366;fillColor=#D5E8D4;" parent="1" vertex="1">
          <mxGeometry x="30" y="50" width="230" height="270" as="geometry" />
        </mxCell>
        <mxCell id="MTrl5ynQiznJmTlUDSWs-4" value="대기 | 요청" style="swimlane;strokeColor=#d79b00;fillColor=#ffe6cc;" parent="1" vertex="1">
          <mxGeometry x="30" y="330" width="229" height="380" as="geometry" />
        </mxCell>
        <mxCell id="hDPYIisuoytdxOGGVnbc-3" value="    폐기 | 완료" style="swimlane;strokeColor=#666666;fillColor=#f5f5f5;fontColor=#333333;align=left;" parent="1" vertex="1">
          <mxGeometry x="1420" y="50" width="610" height="940" as="geometry">
            <mxRectangle x="1130" y="50" width="90" height="23" as="alternateBounds" />
          </mxGeometry>
        </mxCell>
        <mxCell id="U6G1Snlq9G3L8RfConAO-1" value="시련의 탑 입장" style="rounded=1;whiteSpace=wrap;html=1;" parent="hDPYIisuoytdxOGGVnbc-3" vertex="1">
          <mxGeometry x="10" y="40" width="159" height="60" as="geometry" />
        </mxCell>
        <mxCell id="KzR6uSGkWvc5jmkU1Vno-1" value="시련의 탑 리스트 구현" style="rounded=1;whiteSpace=wrap;html=1;" parent="hDPYIisuoytdxOGGVnbc-3" vertex="1">
          <mxGeometry x="10" y="120" width="159" height="60" as="geometry" />
        </mxCell>
        <mxCell id="KzR6uSGkWvc5jmkU1Vno-2" value="층 선택 기능 구현" style="rounded=1;whiteSpace=wrap;html=1;" parent="hDPYIisuoytdxOGGVnbc-3" vertex="1">
          <mxGeometry x="10" y="200" width="159" height="60" as="geometry" />
        </mxCell>
        <mxCell id="loLB35hQQc__Ai0n8xd4-1" value="층별 정보 표기" style="rounded=1;whiteSpace=wrap;html=1;" vertex="1" parent="hDPYIisuoytdxOGGVnbc-3">
          <mxGeometry x="10" y="280" width="159" height="60" as="geometry" />
        </mxCell>
        <mxCell id="loLB35hQQc__Ai0n8xd4-2" value="입장 재화에 따른 처리 추가" style="rounded=1;whiteSpace=wrap;html=1;" vertex="1" parent="hDPYIisuoytdxOGGVnbc-3">
          <mxGeometry x="10" y="350" width="159" height="60" as="geometry" />
        </mxCell>
        <mxCell id="loLB35hQQc__Ai0n8xd4-8" value="진행도에 따른 층 위젯 표기" style="rounded=1;whiteSpace=wrap;html=1;" vertex="1" parent="hDPYIisuoytdxOGGVnbc-3">
          <mxGeometry x="10" y="430" width="159" height="60" as="geometry" />
        </mxCell>
        <mxCell id="cQT0x60TEEhq_TcZNhzu-10" value="킬 스위치 구현" style="rounded=1;whiteSpace=wrap;html=1;" parent="hDPYIisuoytdxOGGVnbc-3" vertex="1">
          <mxGeometry x="10" y="505" width="159" height="60" as="geometry" />
        </mxCell>
        <mxCell id="loLB35hQQc__Ai0n8xd4-12" value="컨텐츠 언락 적용" style="rounded=1;whiteSpace=wrap;html=1;" vertex="1" parent="hDPYIisuoytdxOGGVnbc-3">
          <mxGeometry x="10" y="580" width="159" height="60" as="geometry" />
        </mxCell>
        <mxCell id="loLB35hQQc__Ai0n8xd4-18" value="로그인시 주는 데이터 관련 문의 하기&lt;div&gt;1. 왜 trial_stage_info가 리스트인지&lt;/div&gt;&lt;div&gt;2. 보상은 어떤 int값을 주는 것인지&amp;nbsp;&amp;nbsp;&lt;br&gt;(민재님)&lt;/div&gt;" style="rounded=1;whiteSpace=wrap;html=1;" vertex="1" parent="hDPYIisuoytdxOGGVnbc-3">
          <mxGeometry x="10" y="740" width="159" height="60" as="geometry" />
        </mxCell>
        <mxCell id="loLB35hQQc__Ai0n8xd4-17" value="Reward_Mode의 획득 조건이 왜 int인지 알아보기(푸른님)" style="rounded=1;whiteSpace=wrap;html=1;" vertex="1" parent="hDPYIisuoytdxOGGVnbc-3">
          <mxGeometry x="10" y="650" width="159" height="60" as="geometry" />
        </mxCell>
        <mxCell id="loLB35hQQc__Ai0n8xd4-14" value="Contents_Unlock에 있는 시련의 탑 오타 수정 요청(푸른님)" style="rounded=1;whiteSpace=wrap;html=1;" vertex="1" parent="hDPYIisuoytdxOGGVnbc-3">
          <mxGeometry x="10" y="810" width="159" height="60" as="geometry" />
        </mxCell>
        <mxCell id="loLB35hQQc__Ai0n8xd4-19" value="몬스터 정보에 레벨 적용" style="rounded=1;whiteSpace=wrap;html=1;" vertex="1" parent="hDPYIisuoytdxOGGVnbc-3">
          <mxGeometry x="190" y="40" width="159" height="60" as="geometry" />
        </mxCell>
        <mxCell id="loLB35hQQc__Ai0n8xd4-16" value="로그인 시 현재 보상 정보 표기" style="rounded=1;whiteSpace=wrap;html=1;" vertex="1" parent="hDPYIisuoytdxOGGVnbc-3">
          <mxGeometry x="190" y="120" width="159" height="60" as="geometry" />
        </mxCell>
        <mxCell id="loLB35hQQc__Ai0n8xd4-15" value="보상 위젯 표기" style="rounded=1;whiteSpace=wrap;html=1;" vertex="1" parent="hDPYIisuoytdxOGGVnbc-3">
          <mxGeometry x="190" y="200" width="159" height="60" as="geometry" />
        </mxCell>
        <mxCell id="loLB35hQQc__Ai0n8xd4-6" value="보상 받기" style="rounded=1;whiteSpace=wrap;html=1;" vertex="1" parent="hDPYIisuoytdxOGGVnbc-3">
          <mxGeometry x="190" y="280" width="159" height="60" as="geometry" />
        </mxCell>
        <mxCell id="loLB35hQQc__Ai0n8xd4-10" value="보상 받을 때 맥스 인벤 체크" style="rounded=1;whiteSpace=wrap;html=1;" vertex="1" parent="hDPYIisuoytdxOGGVnbc-3">
          <mxGeometry x="190" y="350" width="159" height="60" as="geometry" />
        </mxCell>
        <mxCell id="loLB35hQQc__Ai0n8xd4-11" value="보상 받은 상황 리프레쉬 적용" style="rounded=1;whiteSpace=wrap;html=1;" vertex="1" parent="hDPYIisuoytdxOGGVnbc-3">
          <mxGeometry x="190" y="430" width="159" height="60" as="geometry" />
        </mxCell>
        <mxCell id="loLB35hQQc__Ai0n8xd4-7" value="보상 레드닷" style="rounded=1;whiteSpace=wrap;html=1;" vertex="1" parent="hDPYIisuoytdxOGGVnbc-3">
          <mxGeometry x="190" y="505" width="159" height="60" as="geometry" />
        </mxCell>
        <mxCell id="loLB35hQQc__Ai0n8xd4-23" value="다음 보상 위젯 추가" style="rounded=1;whiteSpace=wrap;html=1;" vertex="1" parent="hDPYIisuoytdxOGGVnbc-3">
          <mxGeometry x="190" y="580" width="159" height="60" as="geometry" />
        </mxCell>
        <mxCell id="loLB35hQQc__Ai0n8xd4-3" value="랭킹" style="rounded=1;whiteSpace=wrap;html=1;" vertex="1" parent="hDPYIisuoytdxOGGVnbc-3">
          <mxGeometry x="190" y="650" width="159" height="60" as="geometry" />
        </mxCell>
        <mxCell id="loLB35hQQc__Ai0n8xd4-4" value="친구 진행도 보기" style="rounded=1;whiteSpace=wrap;html=1;" vertex="1" parent="hDPYIisuoytdxOGGVnbc-3">
          <mxGeometry x="190" y="740" width="159" height="60" as="geometry" />
        </mxCell>
        <mxCell id="loLB35hQQc__Ai0n8xd4-5" value="길드원 진행도 보기" style="rounded=1;whiteSpace=wrap;html=1;" vertex="1" parent="hDPYIisuoytdxOGGVnbc-3">
          <mxGeometry x="190" y="810" width="159" height="60" as="geometry" />
        </mxCell>
        <mxCell id="loLB35hQQc__Ai0n8xd4-22" value="신규 로컬 요청&lt;br&gt;현재층:&lt;div&gt;다음 보상&lt;br&gt;소모턴&lt;/div&gt;&lt;div&gt;푸른님&lt;/div&gt;" style="rounded=1;whiteSpace=wrap;html=1;" vertex="1" parent="hDPYIisuoytdxOGGVnbc-3">
          <mxGeometry x="359" y="40" width="159" height="60" as="geometry" />
        </mxCell>
        <mxCell id="loLB35hQQc__Ai0n8xd4-24" value="셀렉트 이펙트 진행상황 확인&lt;br&gt;UI 지원님" style="rounded=1;whiteSpace=wrap;html=1;" vertex="1" parent="hDPYIisuoytdxOGGVnbc-3">
          <mxGeometry x="360" y="120" width="159" height="60" as="geometry" />
        </mxCell>
        <mxCell id="loLB35hQQc__Ai0n8xd4-25" value="랭킹에서 바뀐 내 데이터 때문에 싱크 안맞는 문제 어떻게 수정할 것인지?&lt;div&gt;푸른님&lt;/div&gt;" style="rounded=1;whiteSpace=wrap;html=1;" vertex="1" parent="hDPYIisuoytdxOGGVnbc-3">
          <mxGeometry x="360" y="200" width="159" height="60" as="geometry" />
        </mxCell>
        <mxCell id="loLB35hQQc__Ai0n8xd4-20" value="이어하기용 Floor 데이터 저장&lt;br&gt;SceneCombat 스타트에서" style="rounded=1;whiteSpace=wrap;html=1;" vertex="1" parent="hDPYIisuoytdxOGGVnbc-3">
          <mxGeometry x="360" y="350" width="159" height="60" as="geometry" />
        </mxCell>
        <mxCell id="loLB35hQQc__Ai0n8xd4-13" value="킬 스위치 작동 시 토스트가 두 곳에서 되는 현상 개선" style="rounded=1;whiteSpace=wrap;html=1;" vertex="1" parent="hDPYIisuoytdxOGGVnbc-3">
          <mxGeometry x="360" y="280" width="159" height="60" as="geometry" />
        </mxCell>
        <mxCell id="6kkVd8V_ymKgZ0_L0vxy-3" value="My Comment" style="swimlane;" parent="1" vertex="1">
          <mxGeometry x="30" y="1010" width="1710" height="260" as="geometry">
            <mxRectangle x="49" y="720" width="100" height="23" as="alternateBounds" />
          </mxGeometry>
        </mxCell>
        <mxCell id="KfCYHrgsOKh0RXw9eGPa-2" value="&lt;h1&gt;Memo&lt;/h1&gt;&lt;div&gt;&lt;br&gt;&lt;/div&gt;" style="text;html=1;strokeColor=none;fillColor=none;spacing=5;spacingTop=-20;whiteSpace=wrap;overflow=hidden;rounded=0;align=left;" parent="6kkVd8V_ymKgZ0_L0vxy-3" vertex="1">
          <mxGeometry x="1" y="20" width="1070" height="240" as="geometry" />
        </mxCell>
        <mxCell id="wOnGFkAYj0Utu0_wV-MN-18" value="고려" style="swimlane;fillColor=#e1d5e7;strokeColor=#9673a6;" parent="1" vertex="1">
          <mxGeometry x="28" y="720" width="231" height="280" as="geometry" />
        </mxCell>
        <mxCell id="loLB35hQQc__Ai0n8xd4-9" value="행동력 할인 어디서 처리되는지 확인할 것&lt;br&gt;&lt;div style=&quot;background-color:#262626;color:#d0d0d0&quot;&gt;&lt;pre style=&quot;font-family:&#39;JetBrains Mono&#39;,monospace;font-size:11.3pt;&quot;&gt;UPV_ChallengeUtil::SetCurrencyStamina&lt;/pre&gt;&lt;/div&gt;" style="rounded=1;whiteSpace=wrap;html=1;" vertex="1" parent="wOnGFkAYj0Utu0_wV-MN-18">
          <mxGeometry x="32" y="40" width="159" height="140" as="geometry" />
        </mxCell>
        <mxCell id="oumLD8d3DvaTa1NXrWpt-27" value="Preset" style="swimlane;horizontal=0;" parent="1" vertex="1">
          <mxGeometry x="1130" y="50" width="270" height="380" as="geometry" />
        </mxCell>
        <mxCell id="oumLD8d3DvaTa1NXrWpt-32" value="" style="swimlane;fillColor=#dae8fc;strokeColor=#6c8ebf;" parent="oumLD8d3DvaTa1NXrWpt-27" vertex="1" collapsed="1">
          <mxGeometry x="31.5" y="180" width="50" height="40" as="geometry">
            <mxRectangle x="31.5" y="180" width="219.5" height="60" as="alternateBounds" />
          </mxGeometry>
        </mxCell>
        <mxCell id="oumLD8d3DvaTa1NXrWpt-34" value="" style="swimlane;" parent="oumLD8d3DvaTa1NXrWpt-27" vertex="1" collapsed="1">
          <mxGeometry x="31" y="260" width="50" height="40" as="geometry">
            <mxRectangle x="31" y="260" width="219" height="50" as="alternateBounds" />
          </mxGeometry>
        </mxCell>
        <mxCell id="Fb32EvJjGHJRLybvlaYY-3" value="Text" style="text;html=1;align=left;verticalAlign=middle;resizable=0;points=[];autosize=1;strokeColor=none;" parent="oumLD8d3DvaTa1NXrWpt-27" vertex="1">
          <mxGeometry x="220" y="20" width="40" height="20" as="geometry" />
        </mxCell>
        <mxCell id="tH88tRurDEZZYX3UZ1Wb-1" value="" style="rounded=1;whiteSpace=wrap;html=1;" parent="oumLD8d3DvaTa1NXrWpt-27" vertex="1">
          <mxGeometry x="31" y="20" width="159" height="60" as="geometry" />
        </mxCell>
        <mxCell id="8vmb4RLjWRvc2X2qJKQM-1" value="" style="rounded=1;whiteSpace=wrap;html=1;fillColor=#f8cecc;strokeColor=#b85450;" parent="oumLD8d3DvaTa1NXrWpt-27" vertex="1">
          <mxGeometry x="101" y="210" width="159" height="60" as="geometry" />
        </mxCell>
        <mxCell id="Lh-9QCx4mtw0z8OulHlL-3" value="" style="group" parent="oumLD8d3DvaTa1NXrWpt-27" vertex="1" connectable="0">
          <mxGeometry x="40" y="100" width="220" height="100" as="geometry" />
        </mxCell>
        <mxCell id="Lh-9QCx4mtw0z8OulHlL-2" value="" style="rounded=0;whiteSpace=wrap;html=1;" parent="Lh-9QCx4mtw0z8OulHlL-3" vertex="1">
          <mxGeometry x="100" y="80" width="120" height="20" as="geometry" />
        </mxCell>
        <mxCell id="oumLD8d3DvaTa1NXrWpt-28" value="" style="rounded=1;whiteSpace=wrap;html=1;" parent="Lh-9QCx4mtw0z8OulHlL-3" vertex="1">
          <mxGeometry width="159" height="60" as="geometry" />
        </mxCell>
        <mxCell id="oumLD8d3DvaTa1NXrWpt-29" value="" style="rounded=0;whiteSpace=wrap;html=1;" parent="Lh-9QCx4mtw0z8OulHlL-3" vertex="1">
          <mxGeometry x="100" y="60" width="120" height="20" as="geometry" />
        </mxCell>
        <mxCell id="oumLD8d3DvaTa1NXrWpt-30" value="" style="rounded=0;whiteSpace=wrap;html=1;" parent="Lh-9QCx4mtw0z8OulHlL-3" vertex="1">
          <mxGeometry x="100" y="40" width="120" height="20" as="geometry" />
        </mxCell>
        <mxCell id="9A0mLHsorhuxDrabdEOj-9" value="에러 | 수정" style="swimlane;fillColor=#f8cecc;strokeColor=#b85450;startSize=23;" parent="1" vertex="1">
          <mxGeometry x="1130" y="440" width="270" height="560" as="geometry">
            <mxRectangle x="620" y="440" width="90" height="23" as="alternateBounds" />
          </mxGeometry>
        </mxCell>
      </root>
    </mxGraphModel>
  </diagram>
</mxfile>
